# xmcd CD database file
#
# Track frame offsets:
#	183
#	22865
#	41700
#	54578
#	75735
#	107123
#	133540
#	154048
#	177265
#	199910
#	234405
#	253168
#
# Disc length: 3834 seconds
#
# Revision: 0
# Processed by: cddbd v1.5.2PL0 Copyright (c) Steve Scherf et al.
# Submitted via: CDex 1.70beta2
#
DISCID=9a0ef80c
DTITLE=Jam Nation - Way Down Below Buffalo Hell
DYEAR=1993
DGENRE=New Age
TTITLE0=First Time
TTITLE1=Sleeping
TTITLE2=Awakening
TTITLE3=Sunstroke
TTITLE4=She Moved Through The Fair
TTITLE5=Mekong
TTITLE6=Meeting of the People
TTITLE7=Harmonix
TTITLE8=454
TTITLE9=Prehistoric Pubescent Grand Prix
TTITLE10=La Visite est Terminee
TTITLE11=Prehistoric (Bone Us)
EXTD=YEAR: 1993
EXTT0=
EXTT1=
EXTT2=
EXTT3=
EXTT4=
EXTT5=
EXTT6=
EXTT7=
EXTT8=
EXTT9=
EXTT10=
EXTT11=
PLAYORDER=
